G75*
%MOIN*%
%OFA0B0*%
%FSLAX25Y25*%
%IPPOS*%
%LPD*%
%AMOC8*
5,1,8,0,0,1.08239X$1,22.5*
%
%ADD10C,0.06800*%
%ADD11C,0.06540*%
%ADD12C,0.08200*%
%ADD13C,0.06400*%
%ADD14C,0.10249*%
%ADD15C,0.10839*%
%ADD16C,0.04800*%
D10*
X0035000Y0019000D03*
X0035000Y0029000D03*
X0035000Y0039000D03*
D11*
X0045000Y0034000D03*
X0045000Y0024000D03*
X0045000Y0014000D03*
X0045000Y0044000D03*
X0045000Y0164000D03*
X0045000Y0174000D03*
X0045000Y0184000D03*
X0045000Y0194000D03*
X0045000Y0204000D03*
X0045000Y0214000D03*
D12*
X0080000Y0119000D03*
X0080000Y0109000D03*
X0080000Y0099000D03*
X0080000Y0089000D03*
X0080000Y0079000D03*
X0080000Y0069000D03*
X0080000Y0059000D03*
X0080000Y0049000D03*
X0080000Y0039000D03*
X0080000Y0029000D03*
X0080000Y0019000D03*
X0080000Y0009000D03*
X0140000Y0009000D03*
X0140000Y0019000D03*
X0140000Y0029000D03*
X0140000Y0039000D03*
X0140000Y0049000D03*
X0140000Y0059000D03*
X0140000Y0069000D03*
X0140000Y0079000D03*
X0140000Y0089000D03*
X0140000Y0099000D03*
X0140000Y0109000D03*
X0140000Y0119000D03*
D13*
X0114055Y0192945D03*
X0106024Y0192945D03*
X0097992Y0192945D03*
X0089961Y0192945D03*
X0093976Y0202945D03*
X0085945Y0202945D03*
X0102008Y0202945D03*
X0110039Y0202945D03*
D14*
X0131988Y0192945D03*
X0068012Y0192945D03*
D15*
X0070709Y0212000D03*
X0129291Y0212000D03*
D16*
X0143750Y0221500D03*
X0157500Y0221500D03*
X0147500Y0186500D03*
X0143750Y0175250D03*
X0131250Y0179000D03*
X0113750Y0182750D03*
X0097500Y0172750D03*
X0127500Y0146500D03*
X0153750Y0139000D03*
X0156250Y0130250D03*
X0173750Y0132750D03*
X0182500Y0137750D03*
X0176250Y0149000D03*
X0150000Y0114000D03*
X0151250Y0100250D03*
X0151250Y0094000D03*
X0132500Y0110250D03*
X0128750Y0114000D03*
X0116250Y0112750D03*
X0115000Y0100250D03*
X0116250Y0092750D03*
X0127500Y0089000D03*
X0135000Y0074000D03*
X0153750Y0024000D03*
X0132500Y0020250D03*
X0048750Y0069000D03*
X0043750Y0094000D03*
X0095000Y0130250D03*
X0097500Y0135250D03*
M02*
