%
M48
M72
T01C0.0240
T02C0.0354
T03C0.0374
T04C0.0400
T05C0.0630
T06C0.1004
%
T01
X4831Y6838
X4268Y9338
X6143Y14775
X8268Y14775
X9456Y12963
X9956Y10650
X9956Y9775
X11206Y9400
X11581Y10525
X12393Y8400
X12768Y7963
X15268Y10650
X15393Y8650
X15706Y6900
X14831Y4775
X15893Y2838
X14768Y1400
X14456Y2338
X12893Y1775
X9456Y7525
X11706Y12900
X12643Y14900
X14331Y17838
X14706Y18213
X16018Y16838
X14956Y15838
X16018Y14775
X14831Y14150
X11956Y18213
X12331Y18588
X11831Y20275
X15018Y22088
X15643Y22088
T02
X11361Y19294
X10558Y19294
X10156Y20294
X9353Y20294
X8952Y19294
X8550Y20294
X9755Y19294
X10960Y20294
T03
X4456Y20400
X4456Y19400
X4456Y18400
X4456Y17400
X4456Y16400
X4456Y21400
X4456Y4400
X4456Y3400
X4456Y2400
X4456Y1400
T04
X3456Y1900
X3456Y2900
X3456Y3900
X7956Y3900
X7956Y2900
X7956Y1900
X7956Y900
X7956Y4900
X7956Y5900
X7956Y6900
X7956Y7900
X7956Y8900
X7956Y9900
X7956Y10900
X7956Y11900
X13956Y11900
X13956Y10900
X13956Y9900
X13956Y8900
X13956Y7900
X13956Y6900
X13956Y5900
X13956Y4900
X13956Y3900
X13956Y2900
X13956Y1900
X13956Y900
T05
X13155Y19294
X6757Y19294
T06
X7027Y21200
X12885Y21200
M30
