G75*
%MOIN*%
%OFA0B0*%
%FSLAX25Y25*%
%IPPOS*%
%LPD*%
%AMOC8*
5,1,8,0,0,1.08239X$1,22.5*
%
%ADD10R,0.03150X0.04724*%
%ADD11R,0.06299X0.05512*%
%ADD12R,0.05900X0.07900*%
%ADD13R,0.15000X0.07900*%
%ADD14R,0.03543X0.03937*%
%ADD15R,0.07600X0.21000*%
%ADD16R,0.04331X0.05512*%
%ADD17R,0.01800X0.03000*%
%ADD18R,0.05906X0.01575*%
D10*
X0061014Y0142000D03*
X0068100Y0142000D03*
X0068100Y0153000D03*
X0061014Y0153000D03*
X0113014Y0076000D03*
X0120100Y0076000D03*
X0152014Y0034000D03*
X0159100Y0034000D03*
X0159100Y0023000D03*
X0152014Y0023000D03*
X0132100Y0013000D03*
X0125014Y0013000D03*
X0119100Y0013000D03*
X0112014Y0013000D03*
X0154014Y0081000D03*
X0161100Y0081000D03*
X0161100Y0092000D03*
X0154014Y0092000D03*
X0154014Y0112000D03*
X0161100Y0112000D03*
X0160100Y0142000D03*
X0153014Y0142000D03*
X0153014Y0153000D03*
X0160100Y0153000D03*
X0160100Y0163000D03*
X0153014Y0163000D03*
X0153014Y0174000D03*
X0160100Y0174000D03*
X0160100Y0183000D03*
X0153014Y0183000D03*
X0153014Y0192000D03*
X0147100Y0192000D03*
X0147100Y0200000D03*
X0153014Y0200000D03*
X0153014Y0208000D03*
X0147100Y0208000D03*
X0140014Y0208000D03*
X0140014Y0200000D03*
X0140014Y0192000D03*
X0140014Y0216000D03*
X0147100Y0216000D03*
X0153014Y0216000D03*
X0160100Y0216000D03*
X0160100Y0208000D03*
X0160100Y0200000D03*
X0160100Y0192000D03*
D11*
X0157557Y0062512D03*
X0157557Y0051488D03*
D12*
X0033657Y0061600D03*
X0042657Y0061600D03*
X0051657Y0061600D03*
X0051657Y0111600D03*
X0042657Y0111600D03*
X0033657Y0111600D03*
D13*
X0042557Y0086400D03*
X0042557Y0136400D03*
D14*
X0152423Y0012000D03*
X0160691Y0012000D03*
D15*
X0103557Y0025000D03*
X0103557Y0063000D03*
D16*
X0152620Y0128000D03*
X0160494Y0128000D03*
D17*
X0123057Y0142750D03*
X0118057Y0142750D03*
X0113057Y0142750D03*
X0108057Y0142750D03*
X0103057Y0142750D03*
X0098057Y0142750D03*
X0093057Y0142750D03*
X0088057Y0142750D03*
X0088057Y0177250D03*
X0093057Y0177250D03*
X0098057Y0177250D03*
X0103057Y0177250D03*
X0108057Y0177250D03*
X0113057Y0177250D03*
X0118057Y0177250D03*
X0123057Y0177250D03*
D18*
X0121829Y0125634D03*
X0121829Y0123075D03*
X0121829Y0120516D03*
X0121829Y0117957D03*
X0121829Y0115398D03*
X0121829Y0112839D03*
X0121829Y0110280D03*
X0121829Y0107720D03*
X0121829Y0105161D03*
X0121829Y0102602D03*
X0121829Y0100043D03*
X0121829Y0097484D03*
X0121829Y0094925D03*
X0121829Y0092366D03*
X0093285Y0092366D03*
X0093285Y0094925D03*
X0093285Y0097484D03*
X0093285Y0100043D03*
X0093285Y0102602D03*
X0093285Y0105161D03*
X0093285Y0107720D03*
X0093285Y0110280D03*
X0093285Y0112839D03*
X0093285Y0115398D03*
X0093285Y0117957D03*
X0093285Y0120516D03*
X0093285Y0123075D03*
X0093285Y0125634D03*
M02*
