G75*
%MOIN*%
%OFA0B0*%
%FSLAX25Y25*%
%IPPOS*%
%LPD*%
%AMOC8*
5,1,8,0,0,1.08239X$1,22.5*
%
%ADD10R,0.03150X0.04724*%
%ADD11R,0.06299X0.05512*%
%ADD12R,0.05900X0.07900*%
%ADD13R,0.15000X0.07900*%
%ADD14C,0.06000*%
%ADD15R,0.03543X0.03937*%
%ADD16R,0.07600X0.21000*%
%ADD17R,0.04331X0.05512*%
%ADD18R,0.01800X0.03000*%
%ADD19C,0.05740*%
%ADD20C,0.07400*%
%ADD21R,0.05906X0.01575*%
%ADD22C,0.05600*%
%ADD23C,0.09449*%
%ADD24C,0.01000*%
%ADD25C,0.04000*%
D10*
X0061014Y0142000D03*
X0068100Y0142000D03*
X0068100Y0153000D03*
X0061014Y0153000D03*
X0113014Y0076000D03*
X0120100Y0076000D03*
X0152014Y0034000D03*
X0159100Y0034000D03*
X0159100Y0023000D03*
X0152014Y0023000D03*
X0132100Y0013000D03*
X0125014Y0013000D03*
X0119100Y0013000D03*
X0112014Y0013000D03*
X0154014Y0081000D03*
X0161100Y0081000D03*
X0161100Y0092000D03*
X0154014Y0092000D03*
X0154014Y0112000D03*
X0161100Y0112000D03*
X0160100Y0142000D03*
X0153014Y0142000D03*
X0153014Y0153000D03*
X0160100Y0153000D03*
X0160100Y0163000D03*
X0153014Y0163000D03*
X0153014Y0174000D03*
X0160100Y0174000D03*
X0160100Y0183000D03*
X0153014Y0183000D03*
X0153014Y0192000D03*
X0147100Y0192000D03*
X0147100Y0200000D03*
X0153014Y0200000D03*
X0153014Y0208000D03*
X0147100Y0208000D03*
X0140014Y0208000D03*
X0140014Y0200000D03*
X0140014Y0192000D03*
X0140014Y0216000D03*
X0147100Y0216000D03*
X0153014Y0216000D03*
X0160100Y0216000D03*
X0160100Y0208000D03*
X0160100Y0200000D03*
X0160100Y0192000D03*
D11*
X0157557Y0062512D03*
X0157557Y0051488D03*
D12*
X0051657Y0061600D03*
X0042657Y0061600D03*
X0033657Y0061600D03*
X0033657Y0111600D03*
X0042657Y0111600D03*
X0051657Y0111600D03*
D13*
X0042557Y0086400D03*
X0042557Y0136400D03*
D14*
X0034557Y0019000D03*
X0034557Y0029000D03*
X0034557Y0039000D03*
D15*
X0152423Y0012000D03*
X0160691Y0012000D03*
D16*
X0103557Y0025000D03*
X0103557Y0063000D03*
D17*
X0152620Y0128000D03*
X0160494Y0128000D03*
D18*
X0123057Y0142750D03*
X0118057Y0142750D03*
X0113057Y0142750D03*
X0108057Y0142750D03*
X0103057Y0142750D03*
X0098057Y0142750D03*
X0093057Y0142750D03*
X0088057Y0142750D03*
X0088057Y0177250D03*
X0093057Y0177250D03*
X0098057Y0177250D03*
X0103057Y0177250D03*
X0108057Y0177250D03*
X0113057Y0177250D03*
X0118057Y0177250D03*
X0123057Y0177250D03*
D19*
X0044557Y0174000D03*
X0044557Y0164000D03*
X0044557Y0184000D03*
X0044557Y0194000D03*
X0044557Y0204000D03*
X0044557Y0214000D03*
X0044557Y0044000D03*
X0044557Y0034000D03*
X0044557Y0024000D03*
X0044557Y0014000D03*
D20*
X0079557Y0009000D03*
X0079557Y0019000D03*
X0079557Y0029000D03*
X0079557Y0039000D03*
X0079557Y0049000D03*
X0079557Y0059000D03*
X0079557Y0069000D03*
X0079557Y0079000D03*
X0079557Y0089000D03*
X0079557Y0099000D03*
X0079557Y0109000D03*
X0079557Y0119000D03*
X0139557Y0119000D03*
X0139557Y0109000D03*
X0139557Y0099000D03*
X0139557Y0089000D03*
X0139557Y0079000D03*
X0139557Y0069000D03*
X0139557Y0059000D03*
X0139557Y0049000D03*
X0139557Y0039000D03*
X0139557Y0029000D03*
X0139557Y0019000D03*
X0139557Y0009000D03*
D21*
X0121829Y0092366D03*
X0121829Y0094925D03*
X0121829Y0097484D03*
X0121829Y0100043D03*
X0121829Y0102602D03*
X0121829Y0105161D03*
X0121829Y0107720D03*
X0121829Y0110280D03*
X0121829Y0112839D03*
X0121829Y0115398D03*
X0121829Y0117957D03*
X0121829Y0120516D03*
X0121829Y0123075D03*
X0121829Y0125634D03*
X0093285Y0125634D03*
X0093285Y0123075D03*
X0093285Y0120516D03*
X0093285Y0117957D03*
X0093285Y0115398D03*
X0093285Y0112839D03*
X0093285Y0110280D03*
X0093285Y0107720D03*
X0093285Y0105161D03*
X0093285Y0102602D03*
X0093285Y0100043D03*
X0093285Y0097484D03*
X0093285Y0094925D03*
X0093285Y0092366D03*
D22*
X0089518Y0192945D03*
X0093533Y0202945D03*
X0101565Y0202945D03*
X0105581Y0192945D03*
X0113612Y0192945D03*
X0109596Y0202945D03*
X0097549Y0192945D03*
X0085502Y0202945D03*
D23*
X0067569Y0192945D03*
X0131545Y0192945D03*
D24*
X0127057Y0188375D02*
X0125182Y0190250D01*
X0125182Y0195250D01*
X0133307Y0203375D01*
X0137057Y0203375D01*
X0137682Y0204000D01*
X0147057Y0204000D01*
X0147057Y0200250D01*
X0147100Y0200000D01*
X0143620Y0196187D02*
X0143307Y0195875D01*
X0143307Y0178375D01*
X0147057Y0182125D02*
X0147057Y0191500D01*
X0147100Y0192000D01*
X0143932Y0195875D02*
X0143620Y0196187D01*
X0140182Y0199625D01*
X0140014Y0200000D01*
X0143932Y0195875D02*
X0152682Y0195875D01*
X0152682Y0199625D01*
X0153014Y0200000D01*
X0160182Y0199000D02*
X0153307Y0192125D01*
X0153014Y0192000D01*
X0156432Y0188375D02*
X0159557Y0191500D01*
X0160100Y0192000D01*
X0156432Y0188375D02*
X0156432Y0137750D01*
X0147057Y0137750D01*
X0139557Y0145250D01*
X0139557Y0172125D01*
X0079557Y0172125D01*
X0061432Y0190250D01*
X0061432Y0197125D01*
X0044557Y0214000D01*
X0061432Y0159000D02*
X0061432Y0153375D01*
X0061014Y0153000D01*
X0061432Y0152750D01*
X0061432Y0147750D01*
X0065182Y0145875D02*
X0061432Y0142125D01*
X0061014Y0142000D01*
X0065182Y0145875D02*
X0065182Y0155875D01*
X0066432Y0157125D01*
X0097682Y0157125D01*
X0097682Y0142750D01*
X0098057Y0142750D01*
X0098307Y0142750D01*
X0098307Y0124625D01*
X0097057Y0123375D01*
X0093307Y0123375D01*
X0093285Y0123075D01*
X0093307Y0120875D02*
X0093285Y0120516D01*
X0093307Y0120875D02*
X0100807Y0120875D01*
X0100807Y0157125D01*
X0098932Y0159000D01*
X0061432Y0159000D01*
X0068100Y0153000D02*
X0068307Y0152750D01*
X0068307Y0142125D01*
X0068100Y0142000D01*
X0068307Y0141500D01*
X0068307Y0139625D01*
X0087057Y0139625D01*
X0087057Y0082750D01*
X0094557Y0075250D01*
X0103932Y0067125D02*
X0103932Y0063375D01*
X0103557Y0063000D01*
X0103932Y0067125D02*
X0108620Y0071813D01*
X0108307Y0072125D01*
X0108307Y0102750D01*
X0093307Y0102750D01*
X0093285Y0102602D01*
X0093285Y0100043D02*
X0092682Y0099625D01*
X0089557Y0099625D01*
X0089245Y0099312D01*
X0088932Y0099625D01*
X0088932Y0115875D01*
X0089245Y0116187D01*
X0088932Y0116500D01*
X0088932Y0125250D01*
X0092682Y0125250D01*
X0093285Y0125634D01*
X0093307Y0125875D01*
X0094557Y0127125D01*
X0094557Y0129625D01*
X0089557Y0139625D02*
X0087057Y0139625D01*
X0089557Y0139625D02*
X0092682Y0142750D01*
X0093057Y0142750D01*
X0088057Y0142750D02*
X0087682Y0142750D01*
X0082682Y0147750D01*
X0096432Y0174000D02*
X0127057Y0174000D01*
X0127057Y0188375D01*
X0123307Y0185875D02*
X0123307Y0177750D01*
X0123057Y0177250D01*
X0119557Y0179000D02*
X0119557Y0182125D01*
X0119557Y0179000D02*
X0118307Y0177750D01*
X0118057Y0177250D01*
X0115807Y0180250D02*
X0115807Y0189000D01*
X0118307Y0191500D01*
X0118307Y0202750D01*
X0110182Y0196500D02*
X0113307Y0193375D01*
X0113612Y0192945D01*
X0110182Y0196500D02*
X0110182Y0202750D01*
X0109596Y0202945D01*
X0110182Y0203375D01*
X0110182Y0222125D01*
X0133932Y0222125D01*
X0139557Y0216500D01*
X0140014Y0216000D01*
X0143307Y0219000D02*
X0143307Y0211500D01*
X0140182Y0208375D01*
X0140014Y0208000D01*
X0147100Y0208000D02*
X0147682Y0208375D01*
X0152682Y0208375D01*
X0153014Y0208000D01*
X0153307Y0208375D01*
X0156432Y0211500D01*
X0156432Y0220875D01*
X0153014Y0216000D02*
X0152682Y0215875D01*
X0150182Y0215875D01*
X0150182Y0220875D01*
X0150182Y0215875D02*
X0147682Y0215875D01*
X0147100Y0216000D01*
X0143307Y0219000D02*
X0138307Y0224000D01*
X0102057Y0224000D01*
X0102057Y0203375D01*
X0101565Y0202945D01*
X0101432Y0202750D01*
X0101432Y0197125D01*
X0097682Y0193375D01*
X0097549Y0192945D01*
X0089557Y0192750D02*
X0089557Y0185875D01*
X0097682Y0177750D01*
X0098057Y0177250D01*
X0096432Y0174000D02*
X0093307Y0177125D01*
X0093057Y0177250D01*
X0088057Y0177250D02*
X0087682Y0177750D01*
X0085182Y0180250D01*
X0085182Y0202750D01*
X0085502Y0202945D01*
X0089518Y0192945D02*
X0089557Y0192750D01*
X0113307Y0177750D02*
X0113057Y0177250D01*
X0113307Y0177750D02*
X0115807Y0180250D01*
X0120807Y0152750D02*
X0120807Y0126500D01*
X0121432Y0125875D01*
X0121829Y0125634D01*
X0121432Y0123375D02*
X0121829Y0123075D01*
X0121432Y0123375D02*
X0118307Y0123375D01*
X0117057Y0124625D01*
X0117057Y0129000D01*
X0117057Y0139000D01*
X0113307Y0142750D01*
X0113057Y0142750D01*
X0120807Y0152750D02*
X0127682Y0152750D01*
X0152057Y0128375D01*
X0152620Y0128000D01*
X0154557Y0122125D02*
X0154557Y0112125D01*
X0154014Y0112000D01*
X0154557Y0111500D01*
X0156432Y0109625D01*
X0156432Y0107750D01*
X0162682Y0107750D01*
X0166432Y0111500D01*
X0166432Y0176500D01*
X0160182Y0182750D01*
X0160100Y0183000D01*
X0160182Y0183375D01*
X0163307Y0186500D01*
X0163307Y0196500D01*
X0160182Y0199625D01*
X0160100Y0200000D01*
X0160182Y0200250D01*
X0160182Y0207750D01*
X0160100Y0208000D01*
X0160182Y0208375D01*
X0160182Y0215875D01*
X0160100Y0216000D01*
X0160100Y0200000D02*
X0160182Y0199000D01*
X0153014Y0183000D02*
X0152682Y0182750D01*
X0149557Y0179625D01*
X0149557Y0158375D01*
X0153307Y0162750D02*
X0153307Y0153375D01*
X0153014Y0153000D01*
X0153307Y0152750D01*
X0153307Y0142125D01*
X0153014Y0142000D01*
X0152682Y0141500D01*
X0148307Y0141500D01*
X0160100Y0142000D02*
X0160182Y0141500D01*
X0164557Y0137125D01*
X0164557Y0115250D01*
X0161432Y0112125D01*
X0161100Y0112000D01*
X0154014Y0112000D02*
X0153932Y0111500D01*
X0148932Y0111500D01*
X0148932Y0105250D01*
X0157682Y0096500D01*
X0157682Y0078375D01*
X0152682Y0073375D01*
X0152682Y0055875D01*
X0157057Y0051500D01*
X0157557Y0051488D01*
X0157057Y0050875D01*
X0152057Y0045875D01*
X0152057Y0034000D01*
X0152014Y0034000D01*
X0152057Y0034000D02*
X0152057Y0023375D01*
X0152014Y0023000D01*
X0151432Y0022750D01*
X0143932Y0015250D01*
X0143932Y0014000D01*
X0132682Y0014000D01*
X0132100Y0013000D01*
X0132682Y0013375D01*
X0132682Y0014000D01*
X0132682Y0021500D01*
X0127682Y0021500D01*
X0127370Y0021188D01*
X0127057Y0021500D01*
X0127057Y0069000D01*
X0120182Y0075875D01*
X0120100Y0076000D01*
X0119557Y0076500D01*
X0117057Y0079000D01*
X0117057Y0093375D01*
X0118307Y0094625D01*
X0121432Y0094625D01*
X0121829Y0094925D01*
X0121829Y0092366D02*
X0122057Y0092125D01*
X0123932Y0090250D01*
X0123932Y0084000D01*
X0127682Y0079625D02*
X0127682Y0099625D01*
X0122057Y0099625D01*
X0121829Y0100043D01*
X0121829Y0105161D02*
X0121432Y0105250D01*
X0115807Y0105250D01*
X0121829Y0107720D02*
X0122057Y0107750D01*
X0125182Y0107750D01*
X0132682Y0100250D01*
X0132682Y0025875D01*
X0139557Y0019000D01*
X0144557Y0023375D02*
X0144557Y0104000D01*
X0137057Y0104000D01*
X0134557Y0106500D01*
X0134557Y0112750D01*
X0122057Y0112750D01*
X0121829Y0112839D01*
X0121432Y0115250D02*
X0121829Y0115398D01*
X0121432Y0115250D02*
X0112057Y0115250D01*
X0112057Y0094000D01*
X0121829Y0110280D02*
X0122057Y0110250D01*
X0132682Y0110250D01*
X0132682Y0103375D01*
X0134557Y0101500D01*
X0134557Y0044000D01*
X0139557Y0039000D01*
X0148307Y0047750D02*
X0148307Y0085875D01*
X0153932Y0091500D01*
X0154014Y0092000D01*
X0153932Y0086500D02*
X0153932Y0081500D01*
X0154014Y0081000D01*
X0160807Y0081500D02*
X0161100Y0081000D01*
X0161432Y0080875D01*
X0162057Y0080250D01*
X0162057Y0047750D01*
X0155182Y0040875D01*
X0155182Y0014625D01*
X0154245Y0013687D01*
X0153932Y0014000D01*
X0147682Y0014000D01*
X0152423Y0012000D02*
X0152682Y0012125D01*
X0154245Y0013687D01*
X0159557Y0012750D02*
X0159557Y0022750D01*
X0159100Y0023000D01*
X0158932Y0023375D01*
X0158932Y0028375D01*
X0159100Y0034000D02*
X0159557Y0034000D01*
X0164557Y0039000D01*
X0164557Y0094625D01*
X0152682Y0106500D01*
X0148932Y0111500D02*
X0139557Y0111500D01*
X0139557Y0109000D01*
X0139557Y0111500D02*
X0134557Y0116500D01*
X0134557Y0117750D01*
X0122057Y0117750D01*
X0121829Y0117957D01*
X0121432Y0118375D01*
X0097682Y0118375D01*
X0097682Y0110250D01*
X0093307Y0110250D01*
X0093285Y0110280D01*
X0093307Y0110250D02*
X0093307Y0107750D01*
X0093285Y0107720D01*
X0093307Y0105250D02*
X0093285Y0105161D01*
X0093307Y0105250D02*
X0099557Y0105250D01*
X0099557Y0106500D01*
X0093285Y0112839D02*
X0092682Y0112750D01*
X0089245Y0116187D01*
X0093285Y0115398D02*
X0093307Y0115250D01*
X0093307Y0113375D01*
X0093285Y0112839D01*
X0093285Y0117957D02*
X0093307Y0118375D01*
X0097682Y0118375D01*
X0089245Y0099312D02*
X0088932Y0099000D01*
X0088932Y0092750D01*
X0092682Y0092750D01*
X0093285Y0092366D01*
X0098307Y0096500D02*
X0098307Y0030250D01*
X0103557Y0025000D01*
X0103932Y0024625D01*
X0103932Y0020875D01*
X0111432Y0013375D01*
X0112014Y0013000D01*
X0119100Y0013000D02*
X0119557Y0013375D01*
X0127370Y0021188D01*
X0128932Y0017750D02*
X0128932Y0017125D01*
X0125182Y0013375D01*
X0125014Y0013000D01*
X0159557Y0012750D02*
X0160182Y0012125D01*
X0160691Y0012000D01*
X0157557Y0062512D02*
X0157057Y0062750D01*
X0157057Y0069000D01*
X0160807Y0081500D02*
X0160807Y0091500D01*
X0161100Y0092000D01*
X0154557Y0122125D02*
X0160182Y0127750D01*
X0160494Y0128000D01*
X0160100Y0142000D02*
X0160182Y0142125D01*
X0160182Y0147750D01*
X0160182Y0152750D01*
X0160100Y0153000D01*
X0160182Y0153375D01*
X0160182Y0162750D01*
X0160100Y0163000D01*
X0160182Y0168375D02*
X0160182Y0174000D01*
X0160100Y0174000D01*
X0153307Y0174000D02*
X0153307Y0163375D01*
X0153014Y0163000D01*
X0153307Y0162750D01*
X0153307Y0174000D02*
X0153014Y0174000D01*
X0139557Y0172125D02*
X0139557Y0191500D01*
X0140014Y0192000D01*
X0126432Y0149000D02*
X0123932Y0146500D01*
X0123932Y0142750D01*
X0123057Y0142750D01*
X0123307Y0142750D01*
X0126432Y0139625D01*
X0126432Y0121500D01*
X0125807Y0120875D01*
X0122057Y0120875D01*
X0121829Y0120516D01*
X0099557Y0097750D02*
X0098307Y0096500D01*
X0112682Y0075875D02*
X0113014Y0076000D01*
X0112682Y0075875D02*
X0108620Y0071813D01*
X0079557Y0089000D02*
X0056432Y0112125D01*
X0056432Y0115875D01*
X0055182Y0117125D01*
X0033932Y0117125D01*
X0033932Y0112125D01*
X0033657Y0111600D01*
X0033307Y0111500D01*
X0033307Y0062125D01*
X0033657Y0061600D01*
X0033932Y0061500D01*
X0044557Y0050875D01*
X0044557Y0044000D01*
X0048932Y0038375D02*
X0044557Y0034000D01*
X0040182Y0029625D01*
X0040182Y0024625D01*
X0034557Y0019000D01*
X0048932Y0038375D02*
X0048932Y0059000D01*
X0051432Y0061500D01*
X0051657Y0061600D01*
X0052057Y0062125D01*
X0052057Y0111500D01*
X0051657Y0111600D01*
X0042682Y0111500D02*
X0042657Y0111600D01*
X0042682Y0111500D02*
X0042682Y0093375D01*
X0048307Y0068375D02*
X0048307Y0067750D01*
X0042682Y0062125D01*
X0042657Y0061600D01*
D25*
X0048307Y0068375D03*
X0042682Y0093375D03*
X0061432Y0147750D03*
X0082682Y0147750D03*
X0094557Y0129625D03*
X0099557Y0106500D03*
X0099557Y0097750D03*
X0112057Y0094000D03*
X0115807Y0105250D03*
X0123932Y0084000D03*
X0127682Y0079625D03*
X0152682Y0106500D03*
X0153932Y0086500D03*
X0157057Y0069000D03*
X0148307Y0047750D03*
X0158932Y0028375D03*
X0147682Y0014000D03*
X0144557Y0023375D03*
X0128932Y0017750D03*
X0094557Y0075250D03*
X0117057Y0129000D03*
X0126432Y0149000D03*
X0143307Y0178375D03*
X0147057Y0182125D03*
X0160182Y0168375D03*
X0149557Y0158375D03*
X0160182Y0147750D03*
X0148307Y0141500D03*
X0119557Y0182125D03*
X0123307Y0185875D03*
X0118307Y0202750D03*
X0150182Y0220875D03*
X0156432Y0220875D03*
M02*
