G75*
%MOIN*%
%OFA0B0*%
%FSLAX25Y25*%
%IPPOS*%
%LPD*%
%AMOC8*
5,1,8,0,0,1.08239X$1,22.5*
%
%ADD10C,0.00000*%
D10*
X0002000Y0001000D02*
X0001000Y0229961D01*
X0211701Y0229961D01*
X0211701Y0001000D01*
X0002000Y0001000D01*
X0065689Y0212000D02*
X0065691Y0212141D01*
X0065697Y0212283D01*
X0065707Y0212424D01*
X0065721Y0212565D01*
X0065739Y0212705D01*
X0065761Y0212845D01*
X0065786Y0212984D01*
X0065816Y0213122D01*
X0065850Y0213259D01*
X0065887Y0213396D01*
X0065928Y0213531D01*
X0065973Y0213665D01*
X0066022Y0213798D01*
X0066075Y0213929D01*
X0066131Y0214059D01*
X0066191Y0214187D01*
X0066254Y0214314D01*
X0066321Y0214438D01*
X0066391Y0214561D01*
X0066465Y0214681D01*
X0066542Y0214800D01*
X0066623Y0214916D01*
X0066707Y0215030D01*
X0066794Y0215142D01*
X0066884Y0215251D01*
X0066977Y0215357D01*
X0067073Y0215461D01*
X0067172Y0215562D01*
X0067274Y0215660D01*
X0067378Y0215756D01*
X0067485Y0215848D01*
X0067595Y0215937D01*
X0067707Y0216024D01*
X0067822Y0216107D01*
X0067938Y0216186D01*
X0068057Y0216263D01*
X0068179Y0216336D01*
X0068302Y0216405D01*
X0068427Y0216471D01*
X0068554Y0216534D01*
X0068682Y0216593D01*
X0068812Y0216648D01*
X0068944Y0216700D01*
X0069077Y0216747D01*
X0069212Y0216791D01*
X0069347Y0216832D01*
X0069484Y0216868D01*
X0069622Y0216901D01*
X0069760Y0216929D01*
X0069899Y0216954D01*
X0070039Y0216975D01*
X0070180Y0216992D01*
X0070320Y0217005D01*
X0070462Y0217014D01*
X0070603Y0217019D01*
X0070744Y0217020D01*
X0070886Y0217017D01*
X0071027Y0217010D01*
X0071168Y0216999D01*
X0071309Y0216984D01*
X0071449Y0216965D01*
X0071588Y0216942D01*
X0071727Y0216916D01*
X0071865Y0216885D01*
X0072003Y0216850D01*
X0072139Y0216812D01*
X0072274Y0216770D01*
X0072407Y0216724D01*
X0072540Y0216674D01*
X0072671Y0216621D01*
X0072800Y0216564D01*
X0072928Y0216503D01*
X0073054Y0216439D01*
X0073178Y0216371D01*
X0073300Y0216300D01*
X0073420Y0216225D01*
X0073538Y0216147D01*
X0073654Y0216065D01*
X0073767Y0215981D01*
X0073878Y0215893D01*
X0073987Y0215802D01*
X0074092Y0215708D01*
X0074196Y0215612D01*
X0074296Y0215512D01*
X0074393Y0215410D01*
X0074488Y0215304D01*
X0074580Y0215197D01*
X0074668Y0215086D01*
X0074754Y0214974D01*
X0074836Y0214858D01*
X0074915Y0214741D01*
X0074990Y0214621D01*
X0075062Y0214500D01*
X0075131Y0214376D01*
X0075196Y0214251D01*
X0075258Y0214123D01*
X0075316Y0213994D01*
X0075370Y0213864D01*
X0075421Y0213732D01*
X0075468Y0213598D01*
X0075511Y0213464D01*
X0075550Y0213328D01*
X0075586Y0213191D01*
X0075617Y0213053D01*
X0075645Y0212914D01*
X0075669Y0212775D01*
X0075689Y0212635D01*
X0075705Y0212494D01*
X0075717Y0212353D01*
X0075725Y0212212D01*
X0075729Y0212071D01*
X0075729Y0211929D01*
X0075725Y0211788D01*
X0075717Y0211647D01*
X0075705Y0211506D01*
X0075689Y0211365D01*
X0075669Y0211225D01*
X0075645Y0211086D01*
X0075617Y0210947D01*
X0075586Y0210809D01*
X0075550Y0210672D01*
X0075511Y0210536D01*
X0075468Y0210402D01*
X0075421Y0210268D01*
X0075370Y0210136D01*
X0075316Y0210006D01*
X0075258Y0209877D01*
X0075196Y0209749D01*
X0075131Y0209624D01*
X0075062Y0209500D01*
X0074990Y0209379D01*
X0074915Y0209259D01*
X0074836Y0209142D01*
X0074754Y0209026D01*
X0074668Y0208914D01*
X0074580Y0208803D01*
X0074488Y0208696D01*
X0074393Y0208590D01*
X0074296Y0208488D01*
X0074196Y0208388D01*
X0074092Y0208292D01*
X0073987Y0208198D01*
X0073878Y0208107D01*
X0073767Y0208019D01*
X0073654Y0207935D01*
X0073538Y0207853D01*
X0073420Y0207775D01*
X0073300Y0207700D01*
X0073178Y0207629D01*
X0073054Y0207561D01*
X0072928Y0207497D01*
X0072800Y0207436D01*
X0072671Y0207379D01*
X0072540Y0207326D01*
X0072407Y0207276D01*
X0072274Y0207230D01*
X0072139Y0207188D01*
X0072003Y0207150D01*
X0071865Y0207115D01*
X0071727Y0207084D01*
X0071588Y0207058D01*
X0071449Y0207035D01*
X0071309Y0207016D01*
X0071168Y0207001D01*
X0071027Y0206990D01*
X0070886Y0206983D01*
X0070744Y0206980D01*
X0070603Y0206981D01*
X0070462Y0206986D01*
X0070320Y0206995D01*
X0070180Y0207008D01*
X0070039Y0207025D01*
X0069899Y0207046D01*
X0069760Y0207071D01*
X0069622Y0207099D01*
X0069484Y0207132D01*
X0069347Y0207168D01*
X0069212Y0207209D01*
X0069077Y0207253D01*
X0068944Y0207300D01*
X0068812Y0207352D01*
X0068682Y0207407D01*
X0068554Y0207466D01*
X0068427Y0207529D01*
X0068302Y0207595D01*
X0068179Y0207664D01*
X0068057Y0207737D01*
X0067938Y0207814D01*
X0067822Y0207893D01*
X0067707Y0207976D01*
X0067595Y0208063D01*
X0067485Y0208152D01*
X0067378Y0208244D01*
X0067274Y0208340D01*
X0067172Y0208438D01*
X0067073Y0208539D01*
X0066977Y0208643D01*
X0066884Y0208749D01*
X0066794Y0208858D01*
X0066707Y0208970D01*
X0066623Y0209084D01*
X0066542Y0209200D01*
X0066465Y0209319D01*
X0066391Y0209439D01*
X0066321Y0209562D01*
X0066254Y0209686D01*
X0066191Y0209813D01*
X0066131Y0209941D01*
X0066075Y0210071D01*
X0066022Y0210202D01*
X0065973Y0210335D01*
X0065928Y0210469D01*
X0065887Y0210604D01*
X0065850Y0210741D01*
X0065816Y0210878D01*
X0065786Y0211016D01*
X0065761Y0211155D01*
X0065739Y0211295D01*
X0065721Y0211435D01*
X0065707Y0211576D01*
X0065697Y0211717D01*
X0065691Y0211859D01*
X0065689Y0212000D01*
X0066409Y0229795D02*
X0133591Y0229795D01*
X0124271Y0212000D02*
X0124273Y0212141D01*
X0124279Y0212283D01*
X0124289Y0212424D01*
X0124303Y0212565D01*
X0124321Y0212705D01*
X0124343Y0212845D01*
X0124368Y0212984D01*
X0124398Y0213122D01*
X0124432Y0213259D01*
X0124469Y0213396D01*
X0124510Y0213531D01*
X0124555Y0213665D01*
X0124604Y0213798D01*
X0124657Y0213929D01*
X0124713Y0214059D01*
X0124773Y0214187D01*
X0124836Y0214314D01*
X0124903Y0214438D01*
X0124973Y0214561D01*
X0125047Y0214681D01*
X0125124Y0214800D01*
X0125205Y0214916D01*
X0125289Y0215030D01*
X0125376Y0215142D01*
X0125466Y0215251D01*
X0125559Y0215357D01*
X0125655Y0215461D01*
X0125754Y0215562D01*
X0125856Y0215660D01*
X0125960Y0215756D01*
X0126067Y0215848D01*
X0126177Y0215937D01*
X0126289Y0216024D01*
X0126404Y0216107D01*
X0126520Y0216186D01*
X0126639Y0216263D01*
X0126761Y0216336D01*
X0126884Y0216405D01*
X0127009Y0216471D01*
X0127136Y0216534D01*
X0127264Y0216593D01*
X0127394Y0216648D01*
X0127526Y0216700D01*
X0127659Y0216747D01*
X0127794Y0216791D01*
X0127929Y0216832D01*
X0128066Y0216868D01*
X0128204Y0216901D01*
X0128342Y0216929D01*
X0128481Y0216954D01*
X0128621Y0216975D01*
X0128762Y0216992D01*
X0128902Y0217005D01*
X0129044Y0217014D01*
X0129185Y0217019D01*
X0129326Y0217020D01*
X0129468Y0217017D01*
X0129609Y0217010D01*
X0129750Y0216999D01*
X0129891Y0216984D01*
X0130031Y0216965D01*
X0130170Y0216942D01*
X0130309Y0216916D01*
X0130447Y0216885D01*
X0130585Y0216850D01*
X0130721Y0216812D01*
X0130856Y0216770D01*
X0130989Y0216724D01*
X0131122Y0216674D01*
X0131253Y0216621D01*
X0131382Y0216564D01*
X0131510Y0216503D01*
X0131636Y0216439D01*
X0131760Y0216371D01*
X0131882Y0216300D01*
X0132002Y0216225D01*
X0132120Y0216147D01*
X0132236Y0216065D01*
X0132349Y0215981D01*
X0132460Y0215893D01*
X0132569Y0215802D01*
X0132674Y0215708D01*
X0132778Y0215612D01*
X0132878Y0215512D01*
X0132975Y0215410D01*
X0133070Y0215304D01*
X0133162Y0215197D01*
X0133250Y0215086D01*
X0133336Y0214974D01*
X0133418Y0214858D01*
X0133497Y0214741D01*
X0133572Y0214621D01*
X0133644Y0214500D01*
X0133713Y0214376D01*
X0133778Y0214251D01*
X0133840Y0214123D01*
X0133898Y0213994D01*
X0133952Y0213864D01*
X0134003Y0213732D01*
X0134050Y0213598D01*
X0134093Y0213464D01*
X0134132Y0213328D01*
X0134168Y0213191D01*
X0134199Y0213053D01*
X0134227Y0212914D01*
X0134251Y0212775D01*
X0134271Y0212635D01*
X0134287Y0212494D01*
X0134299Y0212353D01*
X0134307Y0212212D01*
X0134311Y0212071D01*
X0134311Y0211929D01*
X0134307Y0211788D01*
X0134299Y0211647D01*
X0134287Y0211506D01*
X0134271Y0211365D01*
X0134251Y0211225D01*
X0134227Y0211086D01*
X0134199Y0210947D01*
X0134168Y0210809D01*
X0134132Y0210672D01*
X0134093Y0210536D01*
X0134050Y0210402D01*
X0134003Y0210268D01*
X0133952Y0210136D01*
X0133898Y0210006D01*
X0133840Y0209877D01*
X0133778Y0209749D01*
X0133713Y0209624D01*
X0133644Y0209500D01*
X0133572Y0209379D01*
X0133497Y0209259D01*
X0133418Y0209142D01*
X0133336Y0209026D01*
X0133250Y0208914D01*
X0133162Y0208803D01*
X0133070Y0208696D01*
X0132975Y0208590D01*
X0132878Y0208488D01*
X0132778Y0208388D01*
X0132674Y0208292D01*
X0132569Y0208198D01*
X0132460Y0208107D01*
X0132349Y0208019D01*
X0132236Y0207935D01*
X0132120Y0207853D01*
X0132002Y0207775D01*
X0131882Y0207700D01*
X0131760Y0207629D01*
X0131636Y0207561D01*
X0131510Y0207497D01*
X0131382Y0207436D01*
X0131253Y0207379D01*
X0131122Y0207326D01*
X0130989Y0207276D01*
X0130856Y0207230D01*
X0130721Y0207188D01*
X0130585Y0207150D01*
X0130447Y0207115D01*
X0130309Y0207084D01*
X0130170Y0207058D01*
X0130031Y0207035D01*
X0129891Y0207016D01*
X0129750Y0207001D01*
X0129609Y0206990D01*
X0129468Y0206983D01*
X0129326Y0206980D01*
X0129185Y0206981D01*
X0129044Y0206986D01*
X0128902Y0206995D01*
X0128762Y0207008D01*
X0128621Y0207025D01*
X0128481Y0207046D01*
X0128342Y0207071D01*
X0128204Y0207099D01*
X0128066Y0207132D01*
X0127929Y0207168D01*
X0127794Y0207209D01*
X0127659Y0207253D01*
X0127526Y0207300D01*
X0127394Y0207352D01*
X0127264Y0207407D01*
X0127136Y0207466D01*
X0127009Y0207529D01*
X0126884Y0207595D01*
X0126761Y0207664D01*
X0126639Y0207737D01*
X0126520Y0207814D01*
X0126404Y0207893D01*
X0126289Y0207976D01*
X0126177Y0208063D01*
X0126067Y0208152D01*
X0125960Y0208244D01*
X0125856Y0208340D01*
X0125754Y0208438D01*
X0125655Y0208539D01*
X0125559Y0208643D01*
X0125466Y0208749D01*
X0125376Y0208858D01*
X0125289Y0208970D01*
X0125205Y0209084D01*
X0125124Y0209200D01*
X0125047Y0209319D01*
X0124973Y0209439D01*
X0124903Y0209562D01*
X0124836Y0209686D01*
X0124773Y0209813D01*
X0124713Y0209941D01*
X0124657Y0210071D01*
X0124604Y0210202D01*
X0124555Y0210335D01*
X0124510Y0210469D01*
X0124469Y0210604D01*
X0124432Y0210741D01*
X0124398Y0210878D01*
X0124368Y0211016D01*
X0124343Y0211155D01*
X0124321Y0211295D01*
X0124303Y0211435D01*
X0124289Y0211576D01*
X0124279Y0211717D01*
X0124273Y0211859D01*
X0124271Y0212000D01*
M02*
