G75*
%MOIN*%
%OFA0B0*%
%FSLAX25Y25*%
%IPPOS*%
%LPD*%
%AMOC8*
5,1,8,0,0,1.08239X$1,22.5*
%
%ADD10R,0.03950X0.05524*%
%ADD11R,0.07099X0.06312*%
%ADD12R,0.06700X0.08700*%
%ADD13R,0.15800X0.08700*%
%ADD14C,0.06800*%
%ADD15R,0.04343X0.04737*%
%ADD16R,0.08400X0.21800*%
%ADD17R,0.05131X0.06312*%
%ADD18R,0.02600X0.03800*%
%ADD19C,0.06540*%
%ADD20C,0.08200*%
%ADD21R,0.06706X0.02375*%
%ADD22C,0.06400*%
%ADD23C,0.10249*%
%ADD24C,0.10839*%
%ADD25C,0.04800*%
D10*
X0061014Y0142000D03*
X0068100Y0142000D03*
X0068100Y0153000D03*
X0061014Y0153000D03*
X0113014Y0076000D03*
X0120100Y0076000D03*
X0152014Y0034000D03*
X0159100Y0034000D03*
X0159100Y0023000D03*
X0152014Y0023000D03*
X0132100Y0013000D03*
X0125014Y0013000D03*
X0119100Y0013000D03*
X0112014Y0013000D03*
X0154014Y0081000D03*
X0161100Y0081000D03*
X0161100Y0092000D03*
X0154014Y0092000D03*
X0154014Y0112000D03*
X0161100Y0112000D03*
X0160100Y0142000D03*
X0153014Y0142000D03*
X0153014Y0153000D03*
X0160100Y0153000D03*
X0160100Y0163000D03*
X0153014Y0163000D03*
X0153014Y0174000D03*
X0160100Y0174000D03*
X0160100Y0183000D03*
X0153014Y0183000D03*
X0153014Y0192000D03*
X0147100Y0192000D03*
X0147100Y0200000D03*
X0153014Y0200000D03*
X0153014Y0208000D03*
X0147100Y0208000D03*
X0140014Y0208000D03*
X0140014Y0200000D03*
X0140014Y0192000D03*
X0140014Y0216000D03*
X0147100Y0216000D03*
X0153014Y0216000D03*
X0160100Y0216000D03*
X0160100Y0208000D03*
X0160100Y0200000D03*
X0160100Y0192000D03*
D11*
X0157557Y0062512D03*
X0157557Y0051488D03*
D12*
X0051657Y0061600D03*
X0042657Y0061600D03*
X0033657Y0061600D03*
X0033657Y0111600D03*
X0042657Y0111600D03*
X0051657Y0111600D03*
D13*
X0042557Y0086400D03*
X0042557Y0136400D03*
D14*
X0034557Y0019000D03*
X0034557Y0029000D03*
X0034557Y0039000D03*
D15*
X0152423Y0012000D03*
X0160691Y0012000D03*
D16*
X0103557Y0025000D03*
X0103557Y0063000D03*
D17*
X0152620Y0128000D03*
X0160494Y0128000D03*
D18*
X0123057Y0142750D03*
X0118057Y0142750D03*
X0113057Y0142750D03*
X0108057Y0142750D03*
X0103057Y0142750D03*
X0098057Y0142750D03*
X0093057Y0142750D03*
X0088057Y0142750D03*
X0088057Y0177250D03*
X0093057Y0177250D03*
X0098057Y0177250D03*
X0103057Y0177250D03*
X0108057Y0177250D03*
X0113057Y0177250D03*
X0118057Y0177250D03*
X0123057Y0177250D03*
D19*
X0044557Y0174000D03*
X0044557Y0164000D03*
X0044557Y0184000D03*
X0044557Y0194000D03*
X0044557Y0204000D03*
X0044557Y0214000D03*
X0044557Y0044000D03*
X0044557Y0034000D03*
X0044557Y0024000D03*
X0044557Y0014000D03*
D20*
X0079557Y0009000D03*
X0079557Y0019000D03*
X0079557Y0029000D03*
X0079557Y0039000D03*
X0079557Y0049000D03*
X0079557Y0059000D03*
X0079557Y0069000D03*
X0079557Y0079000D03*
X0079557Y0089000D03*
X0079557Y0099000D03*
X0079557Y0109000D03*
X0079557Y0119000D03*
X0139557Y0119000D03*
X0139557Y0109000D03*
X0139557Y0099000D03*
X0139557Y0089000D03*
X0139557Y0079000D03*
X0139557Y0069000D03*
X0139557Y0059000D03*
X0139557Y0049000D03*
X0139557Y0039000D03*
X0139557Y0029000D03*
X0139557Y0019000D03*
X0139557Y0009000D03*
D21*
X0121829Y0092366D03*
X0121829Y0094925D03*
X0121829Y0097484D03*
X0121829Y0100043D03*
X0121829Y0102602D03*
X0121829Y0105161D03*
X0121829Y0107720D03*
X0121829Y0110280D03*
X0121829Y0112839D03*
X0121829Y0115398D03*
X0121829Y0117957D03*
X0121829Y0120516D03*
X0121829Y0123075D03*
X0121829Y0125634D03*
X0093285Y0125634D03*
X0093285Y0123075D03*
X0093285Y0120516D03*
X0093285Y0117957D03*
X0093285Y0115398D03*
X0093285Y0112839D03*
X0093285Y0110280D03*
X0093285Y0107720D03*
X0093285Y0105161D03*
X0093285Y0102602D03*
X0093285Y0100043D03*
X0093285Y0097484D03*
X0093285Y0094925D03*
X0093285Y0092366D03*
D22*
X0089518Y0192945D03*
X0093533Y0202945D03*
X0101565Y0202945D03*
X0105581Y0192945D03*
X0113612Y0192945D03*
X0109596Y0202945D03*
X0097549Y0192945D03*
X0085502Y0202945D03*
D23*
X0067569Y0192945D03*
X0131545Y0192945D03*
D24*
X0128848Y0212000D03*
X0070266Y0212000D03*
D25*
X0061432Y0147750D03*
X0082682Y0147750D03*
X0094557Y0129625D03*
X0099557Y0106500D03*
X0099557Y0097750D03*
X0112057Y0094000D03*
X0115807Y0105250D03*
X0123932Y0084000D03*
X0127682Y0079625D03*
X0152682Y0106500D03*
X0153932Y0086500D03*
X0157057Y0069000D03*
X0148307Y0047750D03*
X0158932Y0028375D03*
X0147682Y0014000D03*
X0144557Y0023375D03*
X0128932Y0017750D03*
X0094557Y0075250D03*
X0117057Y0129000D03*
X0126432Y0149000D03*
X0143307Y0178375D03*
X0147057Y0182125D03*
X0160182Y0168375D03*
X0149557Y0158375D03*
X0160182Y0147750D03*
X0148307Y0141500D03*
X0119557Y0182125D03*
X0123307Y0185875D03*
X0118307Y0202750D03*
X0150182Y0220875D03*
X0156432Y0220875D03*
X0048307Y0068375D03*
X0042682Y0093375D03*
M02*
