G75*
%MOIN*%
%OFA0B0*%
%FSLAX25Y25*%
%IPPOS*%
%LPD*%
%AMOC8*
5,1,8,0,0,1.08239X$1,22.5*
%
%ADD10C,0.06000*%
%ADD11C,0.05740*%
%ADD12C,0.07400*%
%ADD13C,0.05600*%
%ADD14C,0.09449*%
%ADD15C,0.01000*%
%ADD16C,0.04000*%
D10*
X0034557Y0019000D03*
X0034557Y0029000D03*
X0034557Y0039000D03*
D11*
X0044557Y0034000D03*
X0044557Y0024000D03*
X0044557Y0014000D03*
X0044557Y0044000D03*
X0044557Y0164000D03*
X0044557Y0174000D03*
X0044557Y0184000D03*
X0044557Y0194000D03*
X0044557Y0204000D03*
X0044557Y0214000D03*
D12*
X0079557Y0119000D03*
X0079557Y0109000D03*
X0079557Y0099000D03*
X0079557Y0089000D03*
X0079557Y0079000D03*
X0079557Y0069000D03*
X0079557Y0059000D03*
X0079557Y0049000D03*
X0079557Y0039000D03*
X0079557Y0029000D03*
X0079557Y0019000D03*
X0079557Y0009000D03*
X0139557Y0009000D03*
X0139557Y0019000D03*
X0139557Y0029000D03*
X0139557Y0039000D03*
X0139557Y0049000D03*
X0139557Y0059000D03*
X0139557Y0069000D03*
X0139557Y0079000D03*
X0139557Y0089000D03*
X0139557Y0099000D03*
X0139557Y0109000D03*
X0139557Y0119000D03*
D13*
X0113612Y0192945D03*
X0105581Y0192945D03*
X0109596Y0202945D03*
X0101565Y0202945D03*
X0093533Y0202945D03*
X0089518Y0192945D03*
X0085502Y0202945D03*
X0097549Y0192945D03*
D14*
X0067569Y0192945D03*
X0131545Y0192945D03*
D15*
X0134557Y0199000D02*
X0112057Y0199000D01*
X0110182Y0197125D01*
X0080807Y0197125D01*
X0063307Y0179625D01*
X0042682Y0179625D01*
X0040182Y0182125D01*
X0040182Y0194000D01*
X0044557Y0194000D01*
X0044557Y0204000D02*
X0038307Y0204000D01*
X0038307Y0174000D01*
X0042682Y0169625D01*
X0134557Y0169625D01*
X0143307Y0178375D01*
X0147057Y0182125D02*
X0119557Y0182125D01*
X0123307Y0185875D02*
X0120807Y0188375D01*
X0110182Y0188375D01*
X0105807Y0192750D01*
X0105581Y0192945D01*
X0093932Y0203375D02*
X0097682Y0207125D01*
X0113932Y0207125D01*
X0118307Y0202750D01*
X0134557Y0199000D02*
X0156432Y0220875D01*
X0150182Y0220875D02*
X0148932Y0222125D01*
X0093932Y0222125D01*
X0070807Y0199000D01*
X0059557Y0199000D01*
X0044557Y0184000D01*
X0061432Y0147750D02*
X0082682Y0147750D01*
X0094557Y0129625D02*
X0110182Y0145250D01*
X0137057Y0145250D01*
X0149557Y0157750D01*
X0149557Y0158375D01*
X0160182Y0147750D01*
X0148307Y0141500D02*
X0148307Y0114000D01*
X0150182Y0114000D01*
X0156432Y0107750D01*
X0156432Y0102750D01*
X0146432Y0102750D01*
X0140182Y0109000D01*
X0139557Y0109000D01*
X0138307Y0110250D01*
X0098307Y0110250D01*
X0092057Y0104000D01*
X0074557Y0104000D01*
X0074557Y0094000D01*
X0079557Y0089000D01*
X0084557Y0094000D02*
X0079557Y0099000D01*
X0084557Y0094000D02*
X0112057Y0094000D01*
X0146432Y0094000D01*
X0153932Y0086500D01*
X0162682Y0083375D02*
X0162682Y0024625D01*
X0148307Y0024625D01*
X0143932Y0029000D01*
X0139557Y0029000D01*
X0135807Y0034000D02*
X0094557Y0075250D01*
X0079557Y0079000D02*
X0127057Y0079000D01*
X0127682Y0079625D01*
X0123932Y0084000D02*
X0142057Y0084000D01*
X0157057Y0069000D01*
X0162682Y0083375D02*
X0142057Y0104000D01*
X0117057Y0104000D01*
X0115807Y0105250D01*
X0123932Y0089000D02*
X0139557Y0089000D01*
X0152682Y0106500D02*
X0145182Y0114000D01*
X0132057Y0114000D01*
X0117057Y0129000D01*
X0126432Y0149000D02*
X0139557Y0162125D01*
X0153932Y0162125D01*
X0160182Y0168375D01*
X0123932Y0089000D02*
X0118932Y0084000D01*
X0063932Y0084000D01*
X0048307Y0068375D01*
X0042682Y0054000D02*
X0092682Y0054000D01*
X0128932Y0017750D01*
X0132682Y0014000D01*
X0147682Y0014000D01*
X0151432Y0016500D02*
X0151432Y0009000D01*
X0139557Y0009000D01*
X0151432Y0016500D02*
X0144557Y0023375D01*
X0135807Y0034000D02*
X0153307Y0034000D01*
X0158932Y0028375D01*
X0139557Y0039000D02*
X0148307Y0047750D01*
X0099557Y0097750D02*
X0099557Y0106500D01*
X0044557Y0044000D02*
X0039557Y0044000D01*
X0034557Y0039000D01*
X0034557Y0029000D02*
X0039557Y0029000D01*
X0044557Y0024000D01*
X0042682Y0054000D02*
X0042682Y0093375D01*
X0093533Y0202945D02*
X0093932Y0203375D01*
D16*
X0118307Y0202750D03*
X0123307Y0185875D03*
X0119557Y0182125D03*
X0143307Y0178375D03*
X0147057Y0182125D03*
X0160182Y0168375D03*
X0149557Y0158375D03*
X0160182Y0147750D03*
X0148307Y0141500D03*
X0126432Y0149000D03*
X0117057Y0129000D03*
X0115807Y0105250D03*
X0112057Y0094000D03*
X0123932Y0084000D03*
X0127682Y0079625D03*
X0152682Y0106500D03*
X0153932Y0086500D03*
X0157057Y0069000D03*
X0148307Y0047750D03*
X0158932Y0028375D03*
X0147682Y0014000D03*
X0144557Y0023375D03*
X0128932Y0017750D03*
X0094557Y0075250D03*
X0099557Y0097750D03*
X0099557Y0106500D03*
X0094557Y0129625D03*
X0082682Y0147750D03*
X0061432Y0147750D03*
X0042682Y0093375D03*
X0048307Y0068375D03*
X0150182Y0220875D03*
X0156432Y0220875D03*
M02*
