%
M48
M72
T01C0.0240
T02C0.0354
T03C0.0374
T04C0.0400
T05C0.0630
T06C0.1004
%
T01
X4875Y6900
X4375Y9400
X9500Y13025
X9750Y13525
X11625Y11275
X12875Y11400
X13250Y11025
X15000Y11400
X15125Y10025
X15125Y9400
X12750Y8900
X11625Y9275
X11500Y10025
X13500Y7400
X15375Y2400
X13250Y2025
X15625Y13025
X15375Y13900
X17375Y13275
X18250Y13775
X17625Y14900
X14375Y17525
X13125Y17900
X11375Y18275
X9750Y17275
X12750Y14650
X14750Y18650
X14375Y22150
X15750Y22150
T02
X11406Y19294
X10602Y19294
X9799Y19294
X8996Y19294
X8594Y20294
X9398Y20294
X10201Y20294
X11004Y20294
T03
X4500Y20400
X4500Y19400
X4500Y18400
X4500Y17400
X4500Y16400
X4500Y21400
X4500Y4400
X4500Y3400
X4500Y2400
X4500Y1400
T04
X3500Y1900
X3500Y2900
X3500Y3900
X8000Y3900
X8000Y2900
X8000Y1900
X8000Y900
X8000Y4900
X8000Y5900
X8000Y6900
X8000Y7900
X8000Y8900
X8000Y9900
X8000Y10900
X8000Y11900
X14000Y11900
X14000Y10900
X14000Y9900
X14000Y8900
X14000Y7900
X14000Y6900
X14000Y5900
X14000Y4900
X14000Y3900
X14000Y2900
X14000Y1900
X14000Y900
T05
X13199Y19294
X6801Y19294
T06
X7071Y21200
X12929Y21200
M30
